<?xml version="1.0" encoding="UTF-8" standalone="no"?>
<!-- Created with Inkscape (http://www.inkscape.org/) -->

<svg
   width="512"
   height="512"
   viewBox="0 0 135.46667 135.46667"
   version="1.1"
   id="svg1"
   xml:space="preserve"
   inkscape:export-filename="sqp_icon.png"
   inkscape:export-xdpi="96"
   inkscape:export-ydpi="96"
   inkscape:version="1.3.2 (091e20ef0f, 2023-11-25)"
   sodipodi:docname="sqp_icon2.svg"
   xmlns:inkscape="http://www.inkscape.org/namespaces/inkscape"
   xmlns:sodipodi="http://sodipodi.sourceforge.net/DTD/sodipodi-0.dtd"
   xmlns:xlink="http://www.w3.org/1999/xlink"
   xmlns="http://www.w3.org/2000/svg"
   xmlns:svg="http://www.w3.org/2000/svg"><sodipodi:namedview
     id="namedview1"
     pagecolor="#d1d1d1"
     bordercolor="#000000"
     borderopacity="0.25"
     inkscape:showpageshadow="2"
     inkscape:pageopacity="0.0"
     inkscape:pagecheckerboard="true"
     inkscape:deskcolor="#656565"
     inkscape:document-units="mm"
     inkscape:zoom="2.2021886"
     inkscape:cx="223.64115"
     inkscape:cy="200.70942"
     inkscape:window-width="2560"
     inkscape:window-height="1360"
     inkscape:window-x="0"
     inkscape:window-y="0"
     inkscape:window-maximized="1"
     inkscape:current-layer="g10" /><defs
     id="defs1"><linearGradient
       id="linearGradient3"
       inkscape:collect="always"><stop
         style="stop-color:#eaeaff;stop-opacity:1;"
         offset="0"
         id="stop3" /><stop
         style="stop-color:#ffffff;stop-opacity:1;"
         offset="1"
         id="stop4" /></linearGradient><inkscape:path-effect
       effect="fillet_chamfer"
       id="path-effect5"
       is_visible="true"
       lpeversion="1"
       nodesatellites_param="F,0,0,1,0,0,0,1 @ F,0,0,1,0,0,0,1 @ F,0,0,1,0,0,0,1 @ F,0,0,1,0,0,0,1 @ F,0,0,1,0,0,0,1 @ F,0,0,1,0,0,0,1 @ F,0,0,1,0,0,0,1 | F,0,0,1,0,0,0,1 @ F,0,0,1,0,0,0,1 | F,0,0,1,0,0,0,1 @ F,0,0,1,0,0,0,1 | F,0,0,1,0,0,0,1 @ F,0,0,1,0,0,0,1 @ F,0,0,1,0,0,0,1 @ F,0,0,1,0,0,0,1"
       radius="0"
       unit="px"
       method="auto"
       mode="F"
       chamfer_steps="1"
       flexible="false"
       use_knot_distance="true"
       apply_no_radius="true"
       apply_with_radius="true"
       only_selected="false"
       hide_knots="false" /><inkscape:path-effect
       effect="fillet_chamfer"
       id="path-effect4"
       is_visible="true"
       lpeversion="1"
       nodesatellites_param="F,0,0,1,0,0,0,1 @ F,0,0,1,0,0,0,1 @ F,0,0,1,0,0,0,1 @ F,0,0,1,0,0,0,1 @ F,0,0,1,0,0,0,1 @ F,0,0,1,0,0,0,1 @ F,0,0,1,0,0,0,1 | F,0,0,1,0,0,0,1 @ F,0,0,1,0,0,0,1 | F,0,0,1,0,0,0,1 @ F,0,0,1,0,0,0,1 | F,0,0,1,0,0,0,1 @ F,0,0,1,0,0,0,1 @ F,0,0,1,0,0,0,1 @ F,0,0,1,0,0,0,1"
       radius="0"
       unit="px"
       method="auto"
       mode="F"
       chamfer_steps="1"
       flexible="false"
       use_knot_distance="true"
       apply_no_radius="true"
       apply_with_radius="true"
       only_selected="false"
       hide_knots="false" /><style
       id="style1">.cls-1{fill:#414178;}.cls-2{fill:#fff;}.cls-3{fill:#ff738f;}.cls-4{fill:url(#linear-gradient);}.cls-5{fill:#cdb999;}.cls-6{fill:#3ad8ab;}</style><linearGradient
       id="linear-gradient"
       x1="138.15854"
       y1="81.041435"
       x2="128.51421"
       y2="122.16921"
       gradientUnits="userSpaceOnUse"
       gradientTransform="translate(-62.896826,-57.679355)"><stop
         offset="0"
         stop-color="#3ad8ab"
         id="stop1"
         style="stop-color:#3ad8ab;stop-opacity:1;" /><stop
         offset="1"
         stop-color="#3ad8ab"
         stop-opacity="0.8"
         id="stop2"
         style="stop-color:#00d098;stop-opacity:1;" /></linearGradient><linearGradient
       inkscape:collect="always"
       xlink:href="#linearGradient3"
       id="linearGradient4"
       x1="67.733337"
       y1="109.32782"
       x2="67.733337"
       y2="26.138847"
       gradientUnits="userSpaceOnUse"
       gradientTransform="matrix(1.1720594,0,0,0.87596817,-11.34364,2.9277044)" /></defs><g
     inkscape:label="Layer 1"
     inkscape:groupmode="layer"
     id="layer1"><path
       id="path756"
       d="m 79.572335,23.942388 -1.58956,0.710551 c -2.00307,0.89567 -3.61693,2.515536 -4.40955,4.42557 l -0.5793,1.394746 -21.25813,-1.042312 c -22.97694,-1.126927 -22.34379,-1.12875 -25.01191,0.0708 -2.69392,1.210831 -5.04991,3.819696 -6.1066,6.761861 -0.53033,1.476452 -0.58658,2.262349 -2.00867,28.075288 -1.61226,29.265345 -1.60011,27.67468 -0.23047,30.521654 0.12264,0.254819 0.26048,0.508798 0.41186,0.76016 l 4.0504,6.725684 c 1.50004,2.49058 4.32964,4.73766 6.87296,5.37952 0.56805,0.14314 17.63413,1.08778 37.92482,2.09806 31.793282,1.58327 37.096245,1.7978 38.366655,1.55391 4.147,-0.7961 7.68959,-4.03656 8.9917,-8.22482 0.64282,-2.06722 3.44448,-52.753815 3.03289,-54.870035 -0.27969,-1.438231 -0.91964,-2.985923 -1.72651,-4.325834 l -3.9703,-6.592363 c -0.19517,-0.55447 -0.45295,-1.098364 -0.76533,-1.616956 l -4.0504,-6.725686 c -0.78229,-1.299011 -1.9016,-2.438903 -3.20497,-3.185337 l -1.29449,-0.741556 -11.722805,-0.576709 z m 4.0504,6.725687 11.7228,0.576193 11.722285,0.576191 1.2945,0.742075 c 0.11687,0.06693 0.23192,0.137754 0.34571,0.21084 0.0404,0.406921 0.10081,0.670191 0.22066,0.869197 l 4.0504,6.725688 c 0.10694,0.177586 0.26137,0.306084 0.49041,0.4439 0.13489,0.08113 0.26997,0.173914 0.40566,0.275952 0.0383,0.15732 0.0732,0.314043 0.10335,0.469222 0.41159,2.115956 -2.38955,52.80333 -3.03237,54.870555 -1.30212,4.188002 -4.84469,7.428202 -8.9917,8.224302 -1.2704,0.24389 -6.573375,0.0294 -38.366655,-1.55391 -20.29069,-1.01028 -37.35689,-1.95465 -37.92482,-2.09806 -1.38723,-0.35007 -2.85847,-1.179241 -4.15375,-2.263431 -0.25969,-2.618882 0.0959,-8.542306 1.1498,-27.672212 1.42208,-25.813204 1.47834,-26.598839 2.00867,-28.075289 1.05671,-2.94243 3.41274,-5.551283 6.1066,-6.762379 2.66813,-1.199279 2.03497,-1.197456 25.01191,-0.0708 l 21.25865,1.04283 0.57878,-1.394746 c 0.79262,-1.910036 2.40648,-3.529873 4.40955,-4.42557 z"
       style="fill:#414178;fill-opacity:1;stroke:#414178;stroke-width:8.33301;stroke-linecap:round;stroke-linejoin:bevel;stroke-dasharray:none;stroke-opacity:1"
       inkscape:label="path756" /><g
       id="g10"
       transform="matrix(0.96613466,-0.03611218,0.03145142,0.99925636,3.4209776,1.2477832)"><rect
         style="vector-effect:non-scaling-stroke;fill:url(#linearGradient4);stroke-width:0.372048;stroke-linecap:round;stroke-linejoin:bevel;-inkscape-stroke:hairline"
         id="rect1"
         width="97.502411"
         height="72.870895"
         x="19.292641"
         y="25.824505"
         ry="11.969079"
         transform="matrix(0.99650569,0.08352493,-0.08935971,0.99599942,0,0)" /><g
         id="g4"
         transform="matrix(1.0451562,0.08760271,-0.09367414,1.0440879,-4.9976177,-15.750105)"><path
           id="circle107-2"
           style="display:inline;fill:#ff738f;stroke-width:2.02576"
           class="cls-3"
           inkscape:label="Pink Mochi"
           d="M 80.987328,73.966629 A 24.876339,24.876339 0 0 1 56.110989,98.842968 24.876339,24.876339 0 0 1 31.23465,73.966629 24.876339,24.876339 0 0 1 56.110989,49.09029 24.876339,24.876339 0 0 1 80.987328,73.966629 Z" /><circle
           class="cls-6"
           cx="56.110989"
           cy="73.966629"
           id="circle109-0"
           inkscape:label="Green Mochi"
           r="18.299885"
           style="display:inline;fill:#3ad8ab;stroke-width:1.49022" /></g><rect
         style="vector-effect:non-scaling-stroke;fill:#fcfcff;fill-opacity:1;stroke-width:0.550473;stroke-linecap:round;stroke-linejoin:bevel;-inkscape-stroke:hairline"
         id="rect10"
         width="37.045361"
         height="17.497049"
         x="73.529755"
         y="18.866802"
         ry="8.7485247"
         transform="matrix(0.99650569,0.08352493,-0.08935971,0.99599942,0,0)" /><rect
         style="vector-effect:non-scaling-stroke;fill:#cdb999;fill-opacity:1;stroke-width:0.347892;stroke-linecap:round;stroke-linejoin:bevel;-inkscape-stroke:hairline"
         id="rect11"
         width="30.358732"
         height="15.953692"
         x="76.87307"
         y="21.395151"
         ry="5.5289593"
         transform="matrix(0.99650569,0.08352493,-0.08935971,0.99599942,0,0)" /><path
         id="rect12"
         style="vector-effect:non-scaling-stroke;fill:#fcfcff;stroke-width:0.245986;stroke-linecap:round;stroke-linejoin:bevel;-inkscape-stroke:hairline"
         d="m 32.705203,58.02999 c 2.002248,-3.876823 5.139463,-6.243905 8.800829,-7.167168 1.247238,-0.314508 2.457886,-0.67008 3.268086,0.324113 0.810201,0.994193 0.902362,2.936868 -0.343176,3.265031 -5.314374,1.400182 -6.189601,2.155586 -8.800827,7.167168 -0.595013,1.141976 -2.457886,0.67008 -3.268088,-0.324114 -0.810199,-0.994192 -0.110341,-2.386913 0.343176,-3.26503 z"
         sodipodi:nodetypes="sssssss" /><ellipse
         style="vector-effect:non-scaling-stroke;fill:#e6e6e6;fill-opacity:1;stroke-width:0.264585;stroke-linecap:round;stroke-linejoin:bevel;-inkscape-stroke:hairline"
         id="path12"
         cx="81.800087"
         cy="25.718088"
         rx="2.7039952"
         ry="2.7026045"
         transform="matrix(0.99650569,0.08352493,-0.08935971,0.99599942,0,0)" /><path
         sodipodi:type="star"
         style="fill:#fcff83;fill-opacity:1;stroke:#414178;stroke-width:16.0365;stroke-linecap:round;stroke-linejoin:round;stroke-dasharray:none;stroke-opacity:1"
         id="path780"
         inkscape:flatsided="false"
         sodipodi:sides="5"
         sodipodi:cx="-51.118969"
         sodipodi:cy="-12.84371"
         sodipodi:r1="87.426704"
         sodipodi:r2="43.713352"
         sodipodi:arg1="0.7104478"
         sodipodi:arg2="1.3387663"
         inkscape:rounded="0"
         inkscape:randomized="0"
         d="m 15.156585,44.173652 -56.22351,-14.475458 -43.798506,38.109227 -3.60704,-57.9448981 -49.778509,-29.8784549 53.994233,-21.336458 13.033693,-56.575128 36.977315,44.758242 57.833776,-5.086897 -31.1409988,48.9985727 z"
         transform="matrix(0.27357092,0.00872632,-0.00741076,0.26450988,97.663621,35.688247)"
         inkscape:transform-center-x="1.6741941"
         inkscape:transform-center-y="-0.55518275" /></g></g></svg>
