<?xml version="1.0" encoding="UTF-8" standalone="no"?>
<svg
   viewBox="0 0 64 64"
   version="1.1"
   id="svg11"
   sodipodi:docname="text-gleam.svg"
   xml:space="preserve"
   inkscape:export-filename="text-gleam.png"
   inkscape:export-xdpi="96"
   inkscape:export-ydpi="96"
   inkscape:version="1.3.2 (091e20ef0f, 2023-11-25)"
   xmlns:inkscape="http://www.inkscape.org/namespaces/inkscape"
   xmlns:sodipodi="http://sodipodi.sourceforge.net/DTD/sodipodi-0.dtd"
   xmlns:xlink="http://www.w3.org/1999/xlink"
   xmlns="http://www.w3.org/2000/svg"
   xmlns:svg="http://www.w3.org/2000/svg"><defs
     id="defs11"><linearGradient
       id="a-1"
       y1="17"
       x1="40"
       y2="31"
       gradientUnits="userSpaceOnUse"
       x2="54"><stop
         stop-color="#060606"
         id="stop1-2" /><stop
         offset="1"
         stop-opacity="0"
         id="stop2-9" /></linearGradient><linearGradient
       id="b-8"
       y1="392.36"
       y2="336.36"
       gradientUnits="userSpaceOnUse"
       x2="0"
       gradientTransform="translate(-48,-332.36)"><stop
         stop-color="#ffffff"
         stop-opacity="0"
         id="stop3-8" /><stop
         offset="1"
         stop-color="#ffffff"
         stop-opacity=".2"
         id="stop4-5" /></linearGradient><linearGradient
       id="linearGradient2"
       y1="392.36"
       y2="336.36"
       gradientUnits="userSpaceOnUse"
       x2="0"
       gradientTransform="translate(-48-332.36)"><stop
         stop-color="#ffffff"
         stop-opacity="0"
         id="stop1-0" /><stop
         offset="1"
         stop-color="#ffffff"
         stop-opacity=".2"
         id="stop2-96" /></linearGradient></defs><sodipodi:namedview
     id="namedview11"
     pagecolor="#ffffff"
     bordercolor="#000000"
     borderopacity="0.25"
     inkscape:showpageshadow="2"
     inkscape:pageopacity="0.0"
     inkscape:pagecheckerboard="0"
     inkscape:deskcolor="#d1d1d1"
     inkscape:zoom="9.0312498"
     inkscape:cx="35.211073"
     inkscape:cy="37.093426"
     inkscape:window-width="2560"
     inkscape:window-height="1360"
     inkscape:window-x="0"
     inkscape:window-y="0"
     inkscape:window-maximized="1"
     inkscape:current-layer="svg11" /><linearGradient
     id="a"
     x2="0"
     y1="3"
     y2="61"
     gradientTransform="matrix(1 0 0 -1 0 64)"
     gradientUnits="userSpaceOnUse"><stop
       stop-color="#8e44ad"
       offset="0"
       id="stop1"
       style="stop-color:#ffaff3;stop-opacity:1;" /><stop
       stop-color="#9b59b6"
       offset="1"
       id="stop2"
       style="stop-color:#fc87f3;stop-opacity:1;" /></linearGradient><linearGradient
     id="b"
     x2="0"
     y1="61"
     y2="47"
     gradientTransform="matrix(1 0 0 -1 0 64)"
     gradientUnits="userSpaceOnUse"><stop
       stop-color="#d3bdd7"
       offset="0"
       id="stop3" /><stop
       stop-color="#e8d9eb"
       offset="1"
       id="stop4" /></linearGradient><linearGradient
     id="c"
     x1="40"
     x2="54"
     y1="17"
     y2="31"
     gradientUnits="userSpaceOnUse"><stop
       stop-color="#383e51"
       offset="0"
       id="stop5" /><stop
       stop-color="#655c6f"
       stop-opacity="0"
       offset="1"
       id="stop6" /></linearGradient><path
     d="m10 61v-58h30l14 14v44h-14z"
     fill="url(#a)"
     id="path6" /><g
     transform="scale(1 -1)"
     id="g8"><path
       d="m10-4h30v1h-30z"
       fill="#fff"
       fill-opacity=".412"
       id="path7" /><path
       d="m10-61h44v1h-44z"
       fill="#2e3132"
       fill-opacity=".294"
       id="path8" /></g><g
     fill-rule="evenodd"
     id="g10"
     inkscape:label="corner"
     style="display:inline"><path
       opacity="0.5"
       d="M 54,17 40,3 v 14 z"
       id="path5-3"
       inkscape:label="path5"
       style="fill:#000000;fill-opacity:1" /><path
       opacity="0.1"
       fill="url(#a)"
       d="M 40,17 54,31 V 17 Z"
       id="path6-3"
       style="fill:url(#a-1)" /></g><g
     style="fill:#584355;fill-opacity:1"
     id="g11"
     transform="matrix(0.01116428,0,0,0.01116428,20.254716,20.751677)"
     inkscape:label="lucy"><path
       d="m 897.60882,-137.57213 c -57.93243,10.21662 -110.88606,48.680248 -132.81039,110.800801 L 594.00444,457.14847 c -16.65206,47.17907 -52.97336,84.74275 -99.59793,103.01071 L 16.151066,747.52982 C -106.57208,795.61022 -130.30371,964.40783 -25.68264,1044.3145 l 407.93518,311.5459 c 19.64142,14.9874 35.81902,34.0348 47.42615,55.8548 11.60714,21.8083 18.37236,45.867 19.83282,70.529 l 30.40406,512.1129 c 7.79995,131.3836 161.04869,206.1235 269.64835,131.3256 v -0.011 l 422.92028,-291.3616 v -0.012 c 20.3583,-14.0362 43.5123,-23.5251 67.861,-27.8172 24.3604,-4.292 49.3587,-3.2944 73.29,2.9348 v 0 l 497.0558,129.1216 c 127.6251,33.1649 246.0744,-89.4954 208.4666,-215.6357 v 0.012 L 1872.6127,1231.275 v 0 c -7.0645,-23.676 -8.9321,-48.5932 -5.4869,-73.0695 3.4453,-24.4648 12.1338,-47.8972 25.4739,-68.6962 v -0.012 l 276.7802,-432.31184 -0.012,-0.002 C 2240.361,546.31131 2160.343,395.8153 2028.5766,392.61018 l -513.4933,-12.47366 c -50.0547,-1.21571 -97.0354,-24.09009 -128.8083,-62.72562 L 1060.2873,-78.912485 C 1018.4455,-129.78389 955.52733,-147.81392 897.59025,-137.59649 M 681.49294,488.00609 v -0.002"
       fill="#151515"
       id="path2-4"
       style="fill:#584355;fill-opacity:1;stroke-width:1.16001"
       sodipodi:nodetypes="ccccsccccccccccscccccscccccccccccc" /><path
       d="m 920.90075,35.13245 c -49.19503,8.67575 -94.16219,41.33826 -112.77988,94.0898 l -145.03472,410.9347 c -14.14061,40.06354 -44.98388,71.96184 -84.57654,87.47462 L 172.38485,786.74287 C 68.170861,827.57177 48.018461,970.91122 136.86053,1038.7662 l 346.41026,264.5585 c 16.67905,12.727 30.41672,28.9017 40.27328,47.4307 9.85658,18.5192 15.60143,38.9494 16.84163,59.8919 l 25.81848,434.8756 c 6.6236,111.5683 136.75925,175.0358 228.97987,111.5191 v -0.012 l 359.13515,-247.4165 v -0.012 c 17.2877,-11.9192 36.9497,-19.9771 57.6261,-23.6218 20.6864,-3.6448 41.9145,-2.7976 62.2365,2.4921 v 0 l 422.0896,109.6475 c 108.3765,28.1628 208.9613,-75.9976 177.0255,-183.1134 v 0.012 L 1748.854,1197.5287 v 0 c -5.999,-20.1051 -7.585,-41.2643 -4.6593,-62.0491 2.9255,-20.775 10.3038,-40.6733 21.6319,-58.3354 v -0.012 l 235.0361,-367.11035 -0.012,-0.002 c 60.2858,-94.15034 -7.6638,-221.94846 -119.5571,-224.67021 l -436.048,-10.5924 c -42.5055,-1.03231 -82.4004,-20.4568 -109.3814,-53.26524 L 1059.0439,84.944988 C 1023.5128,41.746076 970.08394,26.435332 920.88491,35.111796 M 737.37959,566.36065 v -0.002"
       fill="#151515"
       id="path2-4-4"
       style="fill:#fe9df3;fill-opacity:1;stroke-width:0.98506"
       sodipodi:nodetypes="ccccsccccccccccscccccscccccccccccc" /><path
       d="M 918.91,20.3875 C 868.969,29.1948 823.32,62.3526 804.42,115.904 L 657.186,533.07 c -14.355,40.671 -45.666,73.053 -85.859,88.801 L 159.044,783.395 C 53.2498,824.843 32.7918,970.356 122.981,1039.24 l 351.663,268.57 c 16.932,12.92 30.878,29.34 40.884,48.15 10.006,18.8 15.838,39.54 17.097,60.8 l 26.21,441.47 c 6.724,113.26 138.833,177.69 232.452,113.21 l 0.002,-0.01 364.581,-251.17 v -0.01 c 17.55,-12.1 37.51,-20.28 58.5,-23.98 21,-3.7 42.55,-2.84 63.18,2.53 v 0 l 428.49,111.31 c 110.02,28.59 212.13,-77.15 179.71,-185.89 v 0.01 l -126.33,-423.82 v 0 c -6.09,-20.41 -7.7,-41.89 -4.73,-62.99 2.97,-21.09 10.46,-41.29 21.96,-59.22 v -0.01 l 238.6,-372.677 -0.01,-0.002 c 61.2,-95.578 -7.78,-225.314 -121.37,-228.077 l -442.66,-10.753 c -43.15,-1.048 -83.65,-20.767 -111.04,-54.073 L 1059.15,70.9554 C 1023.08,27.1014 968.841,11.5585 918.896,20.3665 m 13.444,76.2469 c 22.695,-4.0023 47.479,3.8376 65.025,25.1656 l 281.015,341.643 c 42.14,51.241 104.57,81.62 170.88,83.233 l 442.66,10.753 c 55.43,1.346 85.71,58.488 55.94,104.974 l -238.59,372.678 c -35.79,55.87 -45.47,124.63 -26.53,188.2 l 126.34,423.81 c 15.73,52.78 -29.25,99.55 -82.93,85.61 v 0 l -428.49,-111.32 c -64.21,-16.69 -132.57,-4.63 -187.2,33.02 l -364.576,251.17 c -45.679,31.47 -103.939,2.9 -107.208,-52.07 l -26.207,-441.47 c -3.932,-66.23 -36.555,-127.51 -89.283,-167.79 L 171.524,975.65 C 127.662,942.151 136.58,878.1 188.203,857.867 L 600.485,696.341 c 61.771,-24.202 110.04,-74.101 132.123,-136.67 v -0.002 L 879.842,142.504 c 9.192,-26.041 29.798,-41.886 52.493,-45.8886"
       fill="#151515"
       id="path2"
       style="display:inline;fill:#584355;fill-opacity:1"
       sodipodi:nodetypes="ccccsccccccccccscccccscccccccccccccccccccscccsccccccsccc" /><path
       d="m 1429.4397,1064.9884 c 60.6997,-10.6967 101.2419,-68.59217 90.531,-129.29465 -10.6967,-60.7039 -68.5836,-101.23614 -129.2975,-90.52954 -60.6996,10.70519 -101.2418,68.595 -90.5451,129.29889 10.7108,60.7082 68.5978,101.2361 129.3116,90.5253 z"
       fill="#151515"
       id="path4"
       style="fill:#584355;fill-opacity:1;stroke-width:1.42054" /><path
       d="m 796.37824,1176.6163 c 60.6997,-10.6967 101.2419,-68.5922 90.531,-129.2947 -10.6967,-60.70387 -68.5836,-101.23611 -129.2975,-90.52951 -60.6996,10.70519 -101.2418,68.59501 -90.5451,129.29891 10.7108,60.7082 68.5978,101.2361 129.3116,90.5253 z"
       fill="#151515"
       id="path4-7"
       style="fill:#584355;fill-opacity:1;stroke-width:1.42054" /><path
       d="m 1025.5354,1116.3875 c -5.9601,2.2989 -11.4094,5.7533 -16.0437,10.1566 -4.6222,4.4032 -8.3443,9.6822 -10.92293,15.5207 -2.59085,5.8507 -4.00182,12.1393 -4.15995,18.5251 -0.15813,6.3859 0.94876,12.7475 3.24768,18.7076 6.0088,15.5329 15.0099,29.74 26.5045,41.8063 v 0 c 11.4945,12.0663 25.2516,21.7363 40.4925,28.4749 l 0.012,0.012 c 15.2166,6.7386 31.6132,10.412 48.2651,10.8134 h 0.012 0.024 c 16.6398,0.3893 33.1944,-2.4935 48.7273,-8.4902 h 0.012 c 15.5329,-5.9966 29.74,-14.9977 41.7941,-26.4923 h 0.012 v -0.012 c 12.0541,-11.4824 21.7242,-25.2395 28.4628,-40.4561 6.763,-15.241 10.4364,-31.674 10.8256,-48.3381 0.3041,-12.8934 -4.5248,-25.3854 -13.4286,-34.727 -8.9159,-9.3295 -21.1646,-14.7423 -34.0702,-15.0464 -6.3859,-0.1581 -12.7353,0.9609 -18.6954,3.2599 -5.9602,2.311 -11.4095,5.7655 -16.0316,10.1809 -4.6222,4.4032 -8.3321,9.6822 -10.9108,15.5329 -2.5786,5.8385 -3.9896,12.1392 -4.1356,18.5251 -0.097,3.8559 -0.9487,7.6631 -2.5178,11.1905 v 0.012 l -0.012,0.024 c -1.5691,3.5396 -3.8194,6.7386 -6.617,9.4146 -2.8098,2.676 -6.1061,4.7681 -9.7187,6.1548 l -0.024,0.012 c -3.6248,1.3988 -7.4806,2.0678 -11.3608,1.9826 -3.868,-0.097 -7.6874,-0.9609 -11.227,-2.53 h -0.024 l -0.012,-0.012 c -3.5396,-1.5691 -6.7265,-3.8072 -9.4025,-6.6048 v -0.012 0 c -2.6759,-2.8097 -4.7681,-6.1061 -6.1669,-9.7308 -2.2989,-5.9602 -5.7534,-11.4095 -10.1566,-16.0316 -4.4154,-4.6222 -9.6822,-8.3443 -15.5329,-10.9229 -5.8385,-2.5909 -12.1392,-4.0019 -18.5251,-4.16 -6.3859,-0.1581 -12.7353,0.9488 -18.6955,3.2599 z"
       fill="#151515"
       id="path5"
       style="fill:#584355;fill-opacity:1;stroke-width:1.21636" /></g><use
     fill="url(#b)"
     xlink:href="#c"
     id="use7"
     style="fill:url(#b-8)" /></svg>
