<?xml version="1.0" encoding="UTF-8" standalone="no"?>
<!-- Created with Inkscape (http://www.inkscape.org/) -->

<svg
   width="29.344in"
   height="10.666667in"
   viewBox="0 0 222.86589 81.01266"
   version="1.1"
   id="svg1"
   inkscape:version="1.3.2 (091e20ef0f, 2023-11-25)"
   sodipodi:docname="dango-icon-text.svg"
   xml:space="preserve"
   inkscape:export-filename="dango-icon_Layer 1.png"
   inkscape:export-xdpi="6"
   inkscape:export-ydpi="6"
   xmlns:inkscape="http://www.inkscape.org/namespaces/inkscape"
   xmlns:sodipodi="http://sodipodi.sourceforge.net/DTD/sodipodi-0.dtd"
   xmlns:xlink="http://www.w3.org/1999/xlink"
   xmlns="http://www.w3.org/2000/svg"
   xmlns:svg="http://www.w3.org/2000/svg"
   xmlns:rdf="http://www.w3.org/1999/02/22-rdf-syntax-ns#"
   xmlns:cc="http://creativecommons.org/ns#"
   xmlns:dc="http://purl.org/dc/elements/1.1/"><title
     id="title1">Dango Music Player</title><sodipodi:namedview
     id="namedview1"
     pagecolor="#ffffff"
     bordercolor="#eeeeee"
     borderopacity="1"
     inkscape:showpageshadow="false"
     inkscape:pageopacity="0"
     inkscape:pagecheckerboard="false"
     inkscape:deskcolor="#474747"
     inkscape:document-units="mm"
     inkscape:zoom="0.35355339"
     inkscape:cx="1115.8145"
     inkscape:cy="87.681241"
     inkscape:window-width="2560"
     inkscape:window-height="1360"
     inkscape:window-x="0"
     inkscape:window-y="0"
     inkscape:window-maximized="1"
     inkscape:current-layer="layer8"
     inkscape:export-bgcolor="#ffffffff"
     shape-rendering="auto"
     inkscape:clip-to-page="false"
     labelstyle="default"
     showguides="false"
     inkscape:lockguides="false"><sodipodi:guide
       position="0,81.012685"
       orientation="0,1024"
       id="guide16"
       inkscape:locked="false" /><sodipodi:guide
       position="81.012682,81.012685"
       orientation="1024,0"
       id="guide17"
       inkscape:locked="false" /><sodipodi:guide
       position="81.012682,2.4143656e-06"
       orientation="0,-1024"
       id="guide18"
       inkscape:locked="false" /><sodipodi:guide
       position="0,2.414366e-06"
       orientation="-1024,0"
       id="guide19"
       inkscape:locked="false" /></sodipodi:namedview><defs
     id="defs1" /><g
     inkscape:groupmode="layer"
     id="layer8"
     inkscape:label="Text"><g
       id="text22-6"
       style="font-size:77.115px;font-family:'Maple Mono';-inkscape-font-specification:'Maple Mono, Normal';fill:#414178;stroke-width:6.42627"
       transform="skewX(-7.0365086)"
       aria-label="DMP"><path
         d="m 107.43018,60.416385 q 9.06101,0 13.10955,-4.241324 4.00998,-4.241325 4.00998,-13.957815 0,-4.16421 -0.23134,-7.672942 -0.11568,-1.735088 -0.38558,-3.277388 -0.23134,-1.5423 -0.61692,-2.853255 -0.73259,-2.62191 -2.42912,-4.279882 -1.85076,-1.85076 -4.12565,-2.660467 -1.15673,-0.424133 -2.39057,-0.655478 -1.23384,-0.231345 -2.54479,-0.30846 -1.31096,-0.07712 -2.73759,-0.115672 -1.42662,-0.03856 -2.89181,-0.03856 -0.69403,0 -1.15672,0.46269 -0.50125,0.46269 -0.50125,1.156725 v 36.783854 q 0,0.694035 0.50125,1.156725 0.46269,0.501247 1.15672,0.501247 z m 0,6.94035 h -6.20776 q -1.503738,0 -2.544791,-1.07961 Q 97.59802,65.236073 97.59802,63.73233 V 17.000642 q 0,-1.465185 1.079609,-2.544795 1.041053,-1.07961 2.544791,-1.07961 h 7.7115 q 7.55727,0 12.56975,2.429122 5.01247,2.506238 7.48015,7.672942 2.50624,5.24382 2.50624,13.495125 v 5.24382 q 0,9.061012 -2.54479,14.574735 -2.62191,5.590837 -7.90429,8.058517 -5.35949,2.506237 -13.6108,2.506237 z"
         id="path6" /><path
         d="m 173.86478,68.51346 q -1.42663,0 -2.42912,-1.041052 -1.04105,-1.002495 -1.04105,-2.46768 V 32.886331 q 0,-0.385575 -0.23135,-0.61692 -0.30846,-0.192787 -0.57836,-0.192787 -0.38558,0 -0.69404,0.46269 l -5.08959,13.418009 q -0.5398,1.23384 -1.65797,1.966433 -1.19528,0.732592 -2.54479,0.732592 -1.31096,0 -2.46768,-0.694035 -1.19529,-0.732592 -1.69653,-2.00499 l -5.08959,-13.418009 q -0.23135,-0.46269 -0.65548,-0.46269 -0.77115,0 -0.77115,0.809707 v 32.118397 q 0,1.465185 -1.04105,2.46768 -1.04106,1.041052 -2.42913,1.041052 -1.42662,0 -2.42912,-1.041052 -1.04105,-1.002495 -1.04105,-2.46768 V 16.422279 q 0,-1.657972 1.23384,-2.968927 1.23384,-1.23384 2.89181,-1.23384 1.23384,0 2.35201,0.655477 1.04105,0.694035 1.50374,1.889318 l 8.17419,21.206624 q 0.46269,1.349513 1.50374,1.349513 0.69404,0 0.96394,-0.385575 0.15423,-0.192788 0.2699,-0.424133 0.15423,-0.269902 0.26991,-0.539805 l 8.13563,-21.206624 q 0.50125,-1.195283 1.5423,-1.889318 1.07961,-0.655477 2.31345,-0.655477 1.69653,0 3.00748,1.23384 1.23384,1.310955 1.23384,2.968927 v 48.582449 q 0,1.465185 -1.04105,2.46768 -1.07961,1.041052 -2.46768,1.041052 z"
         id="path7" /><path
         d="m 208.91358,38.824186 q 3.20027,0 5.51372,-2.31345 2.31345,-2.31345 2.31345,-7.441597 0,-2.93037 -1.04105,-4.819688 -0.53981,-0.963937 -1.2724,-1.69653 -0.69404,-0.732592 -1.58086,-1.233839 -1.77364,-0.963938 -3.93286,-0.963938 h -9.02246 q -0.69403,0 -1.15672,0.46269 -0.50125,0.46269 -0.50125,1.156725 v 15.191655 q 0,0.694035 0.50125,1.156725 0.46269,0.501247 1.15672,0.501247 z M 194.76297,68.51346 q -1.42662,0 -2.42912,-1.041052 -1.04105,-1.002495 -1.04105,-2.429123 V 17.000642 q 0,-1.465185 1.07961,-2.544795 1.04105,-1.07961 2.54479,-1.07961 h 13.99638 q 6.09208,0 10.48764,4.395555 2.15922,2.120662 3.23883,4.742572 1.04105,2.583352 1.04105,6.554775 0,4.93536 -2.00499,8.675437 -2.04355,3.778635 -5.35949,5.899297 -3.39306,2.120663 -7.40304,2.120663 h -9.02246 q -0.69403,0 -1.15672,0.46269 -0.50125,0.501247 -0.50125,1.195282 v 17.620777 q 0,1.426628 -1.0025,2.429123 -1.04105,1.041052 -2.46768,1.041052 z"
         id="path8" /></g><g
       id="text22"
       style="font-size:77.115px;font-family:'Maple Mono';-inkscape-font-specification:'Maple Mono, Normal';fill:#30d19f;stroke-width:6.42627"
       transform="skewX(-7.0365086)"
       aria-label="DMP"><path
         style="fill:#ff6581"
         d="m 104.26002,57.981037 q 9.06101,0 13.10955,-4.241325 4.00998,-4.241325 4.00998,-13.957815 0,-4.164209 -0.23135,-7.672942 -0.11567,-1.735087 -0.38557,-3.277387 -0.23135,-1.5423 -0.61692,-2.853255 -0.7326,-2.62191 -2.42913,-4.279883 -1.85076,-1.85076 -4.12565,-2.660467 -1.15672,-0.424132 -2.39056,-0.655477 -1.23384,-0.231345 -2.5448,-0.30846 -1.31095,-0.07711 -2.73758,-0.115673 -1.42663,-0.03856 -2.89181,-0.03856 -0.69404,0 -1.15673,0.46269 -0.50125,0.462689 -0.50125,1.156724 v 36.783854 q 0,0.694035 0.50125,1.156725 0.46269,0.501248 1.15673,0.501248 z m 0,6.94035 h -6.207762 q -1.503742,0 -2.544795,-1.07961 -1.079609,-1.041053 -1.079609,-2.544795 V 14.565293 q 0,-1.465185 1.079609,-2.544795 1.041053,-1.07961 2.544795,-1.07961 h 7.711502 q 7.55727,0 12.56974,2.429123 5.01248,2.506237 7.48016,7.672942 2.50624,5.24382 2.50624,13.495125 v 5.243819 q 0,9.061013 -2.5448,14.574735 -2.62191,5.590837 -7.90429,8.058517 -5.35949,2.506238 -13.61079,2.506238 z"
         id="path1" /><path
         style="fill:#ffd983"
         d="m 170.69462,66.078112 q -1.42663,0 -2.42913,-1.041053 -1.04105,-1.002495 -1.04105,-2.46768 V 30.450983 q 0,-0.385575 -0.23134,-0.61692 -0.30846,-0.192788 -0.57837,-0.192788 -0.38557,0 -0.69403,0.46269 l -5.08959,13.41801 q -0.53981,1.23384 -1.65797,1.966432 -1.19529,0.732593 -2.5448,0.732593 -1.31095,0 -2.46768,-0.694035 -1.19528,-0.732593 -1.69653,-2.00499 l -5.08959,-13.41801 q -0.23134,-0.46269 -0.65548,-0.46269 -0.77115,0 -0.77115,0.809708 v 32.118396 q 0,1.465185 -1.04105,2.46768 -1.04105,1.041053 -2.42912,1.041053 -1.42663,0 -2.42912,-1.041053 -1.04106,-1.002495 -1.04106,-2.46768 V 13.986931 q 0,-1.657973 1.23384,-2.968928 1.23384,-1.2338398 2.89182,-1.2338398 1.23384,0 2.352,0.6554778 1.04106,0.694035 1.50375,1.889317 l 8.17419,21.206625 q 0.46269,1.349512 1.50374,1.349512 0.69403,0 0.96394,-0.385575 0.15423,-0.192787 0.2699,-0.424132 0.15423,-0.269903 0.2699,-0.539805 l 8.13563,-21.206625 q 0.50125,-1.195282 1.5423,-1.889317 1.07961,-0.6554778 2.31345,-0.6554778 1.69653,0 3.00749,1.2338398 1.23384,1.310955 1.23384,2.968928 v 48.582448 q 0,1.465185 -1.04105,2.46768 -1.07961,1.041053 -2.46768,1.041053 z"
         id="path2" /><path
         d="m 205.74341,36.388838 q 3.20027,0 5.51372,-2.31345 2.31345,-2.31345 2.31345,-7.441598 0,-2.93037 -1.04105,-4.819687 -0.5398,-0.963938 -1.2724,-1.69653 -0.69403,-0.732593 -1.58085,-1.23384 -1.77365,-0.963937 -3.93287,-0.963937 h -9.02245 q -0.69404,0 -1.15673,0.46269 -0.50125,0.462689 -0.50125,1.156724 v 15.191655 q 0,0.694035 0.50125,1.156725 0.46269,0.501248 1.15673,0.501248 z m -14.1506,29.689274 q -1.42663,0 -2.42912,-1.041053 -1.04106,-1.002495 -1.04106,-2.429122 V 14.565293 q 0,-1.465185 1.07961,-2.544795 1.04106,-1.07961 2.5448,-1.07961 h 13.99637 q 6.09209,0 10.48764,4.395555 2.15922,2.120663 3.23883,4.742572 1.04105,2.583353 1.04105,6.554775 0,4.93536 -2.00499,8.675438 -2.04354,3.778634 -5.35949,5.899297 -3.39306,2.120662 -7.40304,2.120662 h -9.02245 q -0.69404,0 -1.15673,0.46269 -0.50125,0.501248 -0.50125,1.195283 v 17.620777 q 0,1.426627 -1.00249,2.429122 -1.04105,1.041053 -2.46768,1.041053 z"
         id="path3" /></g></g><g
     inkscape:groupmode="layer"
     id="layer4"
     inkscape:label="Shadows"
     style="display:inline"
     transform="translate(-8.2557827e-7,-4.0269466)"><g
       inkscape:groupmode="layer"
       id="layer7"
       inkscape:label="BarShadow"
       style="display:inline" /><g
       inkscape:groupmode="layer"
       id="layer6"
       inkscape:label="TriangleShadow"
       style="display:inline"><image
         preserveAspectRatio="none"
         inkscape:svg-dpi="96"
         width="81.012672"
         height="81.012672"
         xlink:href="dango-icon.svg"
         id="image1"
         x="8.2557824e-07"
         y="4.0269489" /></g><g
       inkscape:groupmode="layer"
       id="layer5"
       inkscape:label="MochiShadow"
       style="display:inline" /></g><g
     inkscape:groupmode="layer"
     id="layer3"
     inkscape:label="Triangle"
     style="display:inline"
     transform="translate(-8.2557827e-7,-4.0269466)" /><g
     inkscape:groupmode="layer"
     id="layer2"
     inkscape:label="Bar"
     style="display:inline"
     transform="translate(-8.2557827e-7,-4.0269466)" /><g
     inkscape:groupmode="layer"
     id="layer1"
     inkscape:label="Mochi"
     style="display:inline"
     transform="translate(-8.2557827e-7,-4.0269466)" /><metadata
     id="metadata1"><rdf:RDF><cc:Work
         rdf:about=""><dc:title>Dango Music Player</dc:title></cc:Work></rdf:RDF></metadata></svg>
